{"title":"Universal Soldier, Day of Reckoning 2012 DVD9rip English Klam","uid":9382715,"size":1897526574,"categoryP":"video","categoryS":"movies","magnet":"?xt=urn:btih:51cca566a9d98474ca4ca1593182e42e104a7711&amp;dn=Universal+Soldier%2C+Day+of+Reckoning+2012+DVD9rip+English+Klam&amp;tr=udp%3A%2F%2Ftracker.openbittorrent.com%3A80&amp;tr=udp%3A%2F%2Fopen.demonii.com%3A1337&amp;tr=udp%3A%2F%2Ftracker.coppersurfer.tk%3A6969&amp;tr=udp%3A%2F%2Fexodus.desync.com%3A6969","seeders":1,"leechers":0,"uploader":"Klambake","files":-1,"time":1387737775,"description":"With: Scott Adkins, Jean-Claude Van Damme and Dolph Lundgren\n\n'Universal Soldier: Day Of Reckoning' volgt overlevende 'Unisols' Luc Deveraux en Andrew Scott, die moeten vechten tegen anarchie en een nieuwe orde, geregeerd door Unisols zonder overheidstoezicht. Ze roeien de zwakkeren uit en testen voortdurend de sterkste krijgers in wrede gevechten op leven en dood. Luc heeft zich opgewerkt als leider van de Unisol 'Church Of Eventualism', een zelfhulporganisatie die hulp biedt aan eigenzinnige Unisols die de overheid in het geheim heeft ingezet als 'slapende' agenten, die op ieder gewenst moment ingezet kunnen worden.\n\nJohn looks to take down Luc Deveraux after a home invasion claims his wife and daughter. The fight pits John against Andrew Scott and an army of genetically enhanced warriors; meanwhile, he must contend with a UniSol in relentless pursuit. \n &lt;a href=&quot;\nhttp://www.imdb.com/title/tt1659343&quot; rel=&quot;nofollow&quot; target=&quot;_NEW&quot;&gt;\nhttp://www.imdb.com/title/tt1659343&lt;/a&gt;\t\n\n--------------------- Dutch Friends 4ever ---------------------\n---------------------------------------------------------------\n- Bezoek ook eens mijn vrienden op: &lt;a href=&quot; http://www.Film-Test.nl&quot; rel=&quot;nofollow&quot; target=&quot;_NEW&quot;&gt; http://www.Film-Test.nl&lt;/a&gt; --\n----- voor mijn Nederlandse Sync. ondertitels ---- en meer ----\n------- http://www.Film-Test.nl ---- Over Films en meer -------\n---------------------------------------------------------------\n\nGeneral:\n\nComplete name                    : Universal SoldierDay of Reckoning.avi\nFormat                           : AVI\nFormat/Info                      : Audio Video Interleave\nFile size                        : 1.77 GiB\nDuration                         : 1h 49mn\nOverall bit rate                 : 2 318 Kbps\n\nVideo:\n\nFormat                           : MPEG-4 Visual\nFormat profile                   : Simple@L3\nFormat settings, BVOP            : No\nFormat settings, QPel            : No\nFormat settings, GMC             : No warppoints\nFormat settings, Matrix          : Default (H.263)\nCodec ID                         : XVID\nCodec ID/Hint                    : XviD\nDuration                         : 1h 49mn\nBit rate                         : 1 859 Kbps\nWidth                            : 720 pixels\nHeight                           : 304 pixels\nDisplay aspect ratio             : 2.35:1\nFrame rate                       : 25.000 fps\nColor space                      : YUV\nChroma subsampling               : 4:2:0\nBit depth                        : 8 bits\nScan type                        : Progressive\nCompression mode                 : Lossy\nBits/(Pixel*Frame)               : 0.340\nStream size                      : 1.42 GiB (80%)\nWriting library                  : XviD 1.1.2 (UTC 2006-11-01)\n\nAudio:\n\nFormat                           : AC-3\nFormat/Info                      : Audio Coding 3\nMode extension                   : CM (complete main)\nCodec ID                         : 2000\nDuration                         : 1h 49mn\nBit rate mode                    : Constant\nBit rate                         : 448 Kbps\nChannel(s)                       : 6 channels\nChannel positions                : Front: L C R, Side: L R, LFE\nSampling rate                    : 48.0 KHz\nBit depth                        : 16 bits\nCompression mode                 : Lossy\nStream size                      : 350 MiB (19%)\nAlignment                        : Aligned on interleaves\nInterleave, duration             : 32 ms (0.80 video frame)\nInterleave, preload duration     : 416 ms","torrent":{"xt":"urn:btih:51cca566a9d98474ca4ca1593182e42e104a7711","amp;dn":"Universal+Soldier%2C+Day+of+Reckoning+2012+DVD9rip+English+Klam","amp;tr":["udp%3A%2F%2Ftracker.openbittorrent.com%3A80","udp%3A%2F%2Fopen.demonii.com%3A1337","udp%3A%2F%2Ftracker.coppersurfer.tk%3A6969","udp%3A%2F%2Fexodus.desync.com%3A6969"],"infoHash":"51cca566a9d98474ca4ca1593182e42e104a7711","infoHashBuffer":{"type":"Buffer","data":[81,204,165,102,169,217,132,116,202,76,161,89,49,130,228,46,16,74,119,17]},"announce":[],"urlList":[]}}